<mxfile host="app.diagrams.net" modified="2024-06-24T07:00:35.022Z" agent="Mozilla/5.0 (Windows NT 10.0; Win64; x64) AppleWebKit/537.36 (KHTML, like Gecko) Chrome/126.0.0.0 Safari/537.36" etag="dPCBuVfSCTQb6TXD3q82" version="24.5.4" type="device">
  <diagram name="Page-1" id="xW-bHU2al_uvpoQPwyNc">
    <mxGraphModel dx="450" dy="1866" grid="1" gridSize="10" guides="1" tooltips="1" connect="1" arrows="1" fold="1" page="1" pageScale="1" pageWidth="850" pageHeight="1100" math="0" shadow="0">
      <root>
        <mxCell id="0" />
        <mxCell id="1" parent="0" />
        <mxCell id="yNVoWuhnCR1HmCepwcBa-24" value="" style="strokeWidth=1;shadow=0;dashed=0;align=center;html=1;shape=mxgraph.mockup.containers.browserWindow;rSize=0;strokeColor=#666666;mainText=,;recursiveResize=0;rounded=0;labelBackgroundColor=none;fontFamily=Verdana;fontSize=12" parent="1" vertex="1">
          <mxGeometry x="2590" y="350" width="1050" height="1310" as="geometry" />
        </mxCell>
        <mxCell id="yNVoWuhnCR1HmCepwcBa-25" value="Page 1" style="strokeWidth=1;shadow=0;dashed=0;align=center;html=1;shape=mxgraph.mockup.containers.anchor;fontSize=17;fontColor=#666666;align=left;" parent="yNVoWuhnCR1HmCepwcBa-24" vertex="1">
          <mxGeometry x="60" y="12" width="110" height="26" as="geometry" />
        </mxCell>
        <mxCell id="yNVoWuhnCR1HmCepwcBa-26" value="https://www.default.com" style="strokeWidth=1;shadow=0;dashed=0;align=center;html=1;shape=mxgraph.mockup.containers.anchor;rSize=0;fontSize=17;fontColor=#666666;align=left;" parent="yNVoWuhnCR1HmCepwcBa-24" vertex="1">
          <mxGeometry x="130" y="60" width="250" height="26" as="geometry" />
        </mxCell>
        <mxCell id="yNVoWuhnCR1HmCepwcBa-27" value="" style="verticalLabelPosition=bottom;shadow=0;dashed=0;align=center;html=1;verticalAlign=top;strokeWidth=1;shape=mxgraph.mockup.graphics.simpleIcon;strokeColor=#999999;fillColor=#ffffff;rounded=0;labelBackgroundColor=none;fontFamily=Verdana;fontSize=12;fontColor=#000000;" parent="yNVoWuhnCR1HmCepwcBa-24" vertex="1">
          <mxGeometry y="150" width="1050" height="420" as="geometry" />
        </mxCell>
        <mxCell id="yNVoWuhnCR1HmCepwcBa-28" value="&lt;b&gt;&lt;font style=&quot;font-size: 46px;&quot;&gt;Pfadi MH&lt;/font&gt;&lt;/b&gt;" style="text;html=1;points=[];align=left;verticalAlign=top;spacingTop=-4;fontSize=30;fontFamily=Verdana" parent="yNVoWuhnCR1HmCepwcBa-24" vertex="1">
          <mxGeometry x="410" y="230" width="170" height="50" as="geometry" />
        </mxCell>
        <mxCell id="yNVoWuhnCR1HmCepwcBa-29" value="Lorem ipsum dolor sit amet, consectetur adipisicing elit, sed do eiusmod tempor incididunt ut labore et dolore magna aliqua. Ut enim ad minim veniam, quis nostrud exercitation ullamco laboris nisi ut aliquip ex ea commodo consequat. Duis aute irure dolor in reprehenderit in voluptate velit esse cillum dolore eu fugiat nulla pariatur. Excepteur sint occaecat cupidatat non proident, sunt in culpa qui officia deserunt mollit anim id est laborum.&#xa;Sed ut perspiciatis unde omnis iste natus error sit voluptatem accusantium doloremque laudantium, totam rem aperiam, eaque ipsa quae ab illo inventore veritatis et quasi architecto beatae vitae dicta sunt explicabo. Nemo enim ipsam voluptatem quia voluptas sit aspernatur aut odit aut fugit, sed quia consequuntur magni dolores eos qui ratione voluptatem sequi nesciunt. Neque porro quisquam est, qui dolorem ipsum quia dolor sit amet, consectetur, adipisci velit, sed quia non numquam eius modi tempora incidunt ut labore et dolore magnam aliquam quaerat voluptatem. Ut enim ad minima veniam, quis nostrum exercitationem ullam corporis suscipit laboriosam, nisi ut aliquid ex ea commodi consequatur? Quis autem vel eum iure reprehenderit qui in ea voluptate velit esse quam nihil molestiae consequatur, vel illum qui dolorem eum fugiat quo voluptas nulla pariatur?" style="text;spacingTop=-5;whiteSpace=wrap;html=1;align=left;fontSize=12;fontFamily=Helvetica;fillColor=none;strokeColor=none;rounded=0;shadow=1;labelBackgroundColor=none;" parent="yNVoWuhnCR1HmCepwcBa-24" vertex="1">
          <mxGeometry x="250" y="670" width="570" height="240" as="geometry" />
        </mxCell>
        <mxCell id="yNVoWuhnCR1HmCepwcBa-30" value="Wer sind mir?" style="text;html=1;points=[];align=left;verticalAlign=top;spacingTop=-4;fontSize=30;fontFamily=Verdana" parent="yNVoWuhnCR1HmCepwcBa-24" vertex="1">
          <mxGeometry x="250" y="610" width="340" height="50" as="geometry" />
        </mxCell>
        <mxCell id="yNVoWuhnCR1HmCepwcBa-31" value="" style="verticalLabelPosition=bottom;shadow=0;dashed=0;align=center;html=1;verticalAlign=top;strokeWidth=1;shape=mxgraph.mockup.markup.line;strokeColor=#999999;rounded=0;labelBackgroundColor=none;fillColor=#ffffff;fontFamily=Verdana;fontSize=12;fontColor=#000000;" parent="yNVoWuhnCR1HmCepwcBa-24" vertex="1">
          <mxGeometry y="910" width="1050" height="20" as="geometry" />
        </mxCell>
        <mxCell id="yNVoWuhnCR1HmCepwcBa-32" value="Gruppe finden" style="strokeWidth=1;shadow=0;dashed=0;align=center;html=1;shape=mxgraph.mockup.buttons.button;strokeColor=#666666;mainText=;buttonStyle=round;fontSize=17;fontStyle=0;fillColor=none;whiteSpace=wrap;rounded=0;labelBackgroundColor=none;" parent="yNVoWuhnCR1HmCepwcBa-24" vertex="1">
          <mxGeometry x="75" y="1180" width="190" height="30" as="geometry" />
        </mxCell>
        <mxCell id="yNVoWuhnCR1HmCepwcBa-33" value="Datum abmachen" style="strokeWidth=1;shadow=0;dashed=0;align=center;html=1;shape=mxgraph.mockup.buttons.button;strokeColor=#666666;mainText=;buttonStyle=round;fontSize=17;fontStyle=0;fillColor=none;whiteSpace=wrap;rounded=0;labelBackgroundColor=none;" parent="yNVoWuhnCR1HmCepwcBa-24" vertex="1">
          <mxGeometry x="315" y="1180" width="190" height="30" as="geometry" />
        </mxCell>
        <mxCell id="yNVoWuhnCR1HmCepwcBa-34" value="Vorbeikommen" style="strokeWidth=1;shadow=0;dashed=0;align=center;html=1;shape=mxgraph.mockup.buttons.button;strokeColor=#666666;mainText=;buttonStyle=round;fontSize=17;fontStyle=0;fillColor=none;whiteSpace=wrap;rounded=0;labelBackgroundColor=none;" parent="yNVoWuhnCR1HmCepwcBa-24" vertex="1">
          <mxGeometry x="555" y="1180" width="190" height="30" as="geometry" />
        </mxCell>
        <mxCell id="yNVoWuhnCR1HmCepwcBa-35" value="Anmelden" style="strokeWidth=1;shadow=0;dashed=0;align=center;html=1;shape=mxgraph.mockup.buttons.button;strokeColor=#666666;mainText=;buttonStyle=round;fontSize=17;fontStyle=0;fillColor=none;whiteSpace=wrap;rounded=0;labelBackgroundColor=none;" parent="yNVoWuhnCR1HmCepwcBa-24" vertex="1">
          <mxGeometry x="785" y="1180" width="190" height="30" as="geometry" />
        </mxCell>
        <mxCell id="yNVoWuhnCR1HmCepwcBa-36" value="" style="verticalLabelPosition=bottom;shadow=0;dashed=0;align=center;html=1;verticalAlign=top;strokeWidth=1;shape=mxgraph.mockup.graphics.simpleIcon;strokeColor=#999999;fillColor=#ffffff;rounded=0;labelBackgroundColor=none;fontFamily=Verdana;fontSize=12;fontColor=#000000;" parent="yNVoWuhnCR1HmCepwcBa-24" vertex="1">
          <mxGeometry x="107.5" y="1040" width="125" height="130" as="geometry" />
        </mxCell>
        <mxCell id="yNVoWuhnCR1HmCepwcBa-37" value="" style="verticalLabelPosition=bottom;shadow=0;dashed=0;align=center;html=1;verticalAlign=top;strokeWidth=1;shape=mxgraph.mockup.graphics.simpleIcon;strokeColor=#999999;fillColor=#ffffff;rounded=0;labelBackgroundColor=none;fontFamily=Verdana;fontSize=12;fontColor=#000000;" parent="yNVoWuhnCR1HmCepwcBa-24" vertex="1">
          <mxGeometry x="347.5" y="1040" width="125" height="130" as="geometry" />
        </mxCell>
        <mxCell id="yNVoWuhnCR1HmCepwcBa-38" value="" style="verticalLabelPosition=bottom;shadow=0;dashed=0;align=center;html=1;verticalAlign=top;strokeWidth=1;shape=mxgraph.mockup.graphics.simpleIcon;strokeColor=#999999;fillColor=#ffffff;rounded=0;labelBackgroundColor=none;fontFamily=Verdana;fontSize=12;fontColor=#000000;" parent="yNVoWuhnCR1HmCepwcBa-24" vertex="1">
          <mxGeometry x="587.5" y="1040" width="125" height="130" as="geometry" />
        </mxCell>
        <mxCell id="yNVoWuhnCR1HmCepwcBa-39" value="" style="verticalLabelPosition=bottom;shadow=0;dashed=0;align=center;html=1;verticalAlign=top;strokeWidth=1;shape=mxgraph.mockup.graphics.simpleIcon;strokeColor=#999999;fillColor=#ffffff;rounded=0;labelBackgroundColor=none;fontFamily=Verdana;fontSize=12;fontColor=#000000;" parent="yNVoWuhnCR1HmCepwcBa-24" vertex="1">
          <mxGeometry x="817.5" y="1040" width="125" height="130" as="geometry" />
        </mxCell>
        <mxCell id="yNVoWuhnCR1HmCepwcBa-40" value="" style="shape=flexArrow;endArrow=classic;html=1;rounded=0;entryX=-0.044;entryY=0.773;entryDx=0;entryDy=0;entryPerimeter=0;" parent="yNVoWuhnCR1HmCepwcBa-24" edge="1">
          <mxGeometry width="50" height="50" relative="1" as="geometry">
            <mxPoint x="255" y="1110" as="sourcePoint" />
            <mxPoint x="332" y="1110.4899999999998" as="targetPoint" />
          </mxGeometry>
        </mxCell>
        <mxCell id="yNVoWuhnCR1HmCepwcBa-41" value="" style="shape=flexArrow;endArrow=classic;html=1;rounded=0;entryX=-0.044;entryY=0.773;entryDx=0;entryDy=0;entryPerimeter=0;" parent="yNVoWuhnCR1HmCepwcBa-24" edge="1">
          <mxGeometry width="50" height="50" relative="1" as="geometry">
            <mxPoint x="491.5" y="1110" as="sourcePoint" />
            <mxPoint x="568.5" y="1110.4899999999998" as="targetPoint" />
          </mxGeometry>
        </mxCell>
        <mxCell id="yNVoWuhnCR1HmCepwcBa-42" value="" style="shape=flexArrow;endArrow=classic;html=1;rounded=0;entryX=-0.044;entryY=0.773;entryDx=0;entryDy=0;entryPerimeter=0;" parent="yNVoWuhnCR1HmCepwcBa-24" edge="1">
          <mxGeometry width="50" height="50" relative="1" as="geometry">
            <mxPoint x="725" y="1110" as="sourcePoint" />
            <mxPoint x="802" y="1110.4899999999998" as="targetPoint" />
          </mxGeometry>
        </mxCell>
        <mxCell id="yNVoWuhnCR1HmCepwcBa-44" value="Chum goluege" style="text;html=1;points=[];align=left;verticalAlign=top;spacingTop=-4;fontSize=30;fontFamily=Verdana" parent="yNVoWuhnCR1HmCepwcBa-24" vertex="1">
          <mxGeometry x="240" y="950" width="340" height="50" as="geometry" />
        </mxCell>
        <mxCell id="yNVoWuhnCR1HmCepwcBa-181" value="Copyright PfadiMH" style="text;html=1;align=center;verticalAlign=middle;whiteSpace=wrap;rounded=0;" parent="yNVoWuhnCR1HmCepwcBa-24" vertex="1">
          <mxGeometry x="435" y="1270" width="145" height="30" as="geometry" />
        </mxCell>
        <mxCell id="yNVoWuhnCR1HmCepwcBa-183" value="Logo" style="ellipse;whiteSpace=wrap;html=1;aspect=fixed;" parent="yNVoWuhnCR1HmCepwcBa-24" vertex="1">
          <mxGeometry x="495" y="110" width="40" height="40" as="geometry" />
        </mxCell>
        <mxCell id="yNVoWuhnCR1HmCepwcBa-184" value="Home" style="text;html=1;align=center;verticalAlign=middle;whiteSpace=wrap;rounded=0;" parent="yNVoWuhnCR1HmCepwcBa-24" vertex="1">
          <mxGeometry x="430" y="115" width="60" height="30" as="geometry" />
        </mxCell>
        <mxCell id="yNVoWuhnCR1HmCepwcBa-185" value="Gruppenübersicht" style="text;html=1;align=center;verticalAlign=middle;whiteSpace=wrap;rounded=0;" parent="yNVoWuhnCR1HmCepwcBa-24" vertex="1">
          <mxGeometry x="570" y="115" width="60" height="30" as="geometry" />
        </mxCell>
        <mxCell id="yNVoWuhnCR1HmCepwcBa-266" value="" style="endArrow=classic;startArrow=classic;html=1;rounded=0;entryX=0.359;entryY=1.004;entryDx=0;entryDy=0;entryPerimeter=0;exitX=0.376;exitY=0.02;exitDx=0;exitDy=0;exitPerimeter=0;" parent="yNVoWuhnCR1HmCepwcBa-24" source="yNVoWuhnCR1HmCepwcBa-30" target="yNVoWuhnCR1HmCepwcBa-27" edge="1">
          <mxGeometry width="50" height="50" relative="1" as="geometry">
            <mxPoint x="130" y="660" as="sourcePoint" />
            <mxPoint x="180" y="610" as="targetPoint" />
          </mxGeometry>
        </mxCell>
        <mxCell id="yNVoWuhnCR1HmCepwcBa-267" value="100px" style="edgeLabel;html=1;align=center;verticalAlign=middle;resizable=0;points=[];" parent="yNVoWuhnCR1HmCepwcBa-266" vertex="1" connectable="0">
          <mxGeometry x="0.1069" y="1" relative="1" as="geometry">
            <mxPoint as="offset" />
          </mxGeometry>
        </mxCell>
        <mxCell id="yNVoWuhnCR1HmCepwcBa-268" value="" style="endArrow=classic;startArrow=classic;html=1;rounded=0;" parent="yNVoWuhnCR1HmCepwcBa-24" edge="1">
          <mxGeometry width="50" height="50" relative="1" as="geometry">
            <mxPoint x="370" y="670" as="sourcePoint" />
            <mxPoint x="370" y="650" as="targetPoint" />
          </mxGeometry>
        </mxCell>
        <mxCell id="yNVoWuhnCR1HmCepwcBa-269" value="30px" style="edgeLabel;html=1;align=center;verticalAlign=middle;resizable=0;points=[];" parent="yNVoWuhnCR1HmCepwcBa-268" vertex="1" connectable="0">
          <mxGeometry x="0.1069" y="1" relative="1" as="geometry">
            <mxPoint as="offset" />
          </mxGeometry>
        </mxCell>
        <mxCell id="yNVoWuhnCR1HmCepwcBa-276" value="" style="endArrow=classic;startArrow=classic;html=1;rounded=0;entryX=0.383;entryY=0.55;entryDx=0;entryDy=0;entryPerimeter=0;exitX=0.476;exitY=0.147;exitDx=0;exitDy=0;exitPerimeter=0;" parent="yNVoWuhnCR1HmCepwcBa-24" source="yNVoWuhnCR1HmCepwcBa-44" target="yNVoWuhnCR1HmCepwcBa-31" edge="1">
          <mxGeometry width="50" height="50" relative="1" as="geometry">
            <mxPoint x="411" y="880" as="sourcePoint" />
            <mxPoint x="411" y="926" as="targetPoint" />
          </mxGeometry>
        </mxCell>
        <mxCell id="yNVoWuhnCR1HmCepwcBa-277" value="100px" style="edgeLabel;html=1;align=center;verticalAlign=middle;resizable=0;points=[];" parent="yNVoWuhnCR1HmCepwcBa-276" vertex="1" connectable="0">
          <mxGeometry x="0.1069" y="1" relative="1" as="geometry">
            <mxPoint as="offset" />
          </mxGeometry>
        </mxCell>
        <mxCell id="yNVoWuhnCR1HmCepwcBa-319" value="" style="endArrow=classic;startArrow=classic;html=1;rounded=0;entryX=1.015;entryY=0.151;entryDx=0;entryDy=0;entryPerimeter=0;exitX=-0.014;exitY=0.155;exitDx=0;exitDy=0;exitPerimeter=0;" parent="yNVoWuhnCR1HmCepwcBa-24" source="yNVoWuhnCR1HmCepwcBa-37" target="yNVoWuhnCR1HmCepwcBa-36" edge="1">
          <mxGeometry width="50" height="50" relative="1" as="geometry">
            <mxPoint x="423" y="1010" as="sourcePoint" />
            <mxPoint x="423" y="1049" as="targetPoint" />
          </mxGeometry>
        </mxCell>
        <mxCell id="yNVoWuhnCR1HmCepwcBa-320" value="150px" style="edgeLabel;html=1;align=center;verticalAlign=middle;resizable=0;points=[];" parent="yNVoWuhnCR1HmCepwcBa-319" vertex="1" connectable="0">
          <mxGeometry x="0.1069" y="1" relative="1" as="geometry">
            <mxPoint as="offset" />
          </mxGeometry>
        </mxCell>
        <mxCell id="yNVoWuhnCR1HmCepwcBa-321" value="" style="endArrow=classic;startArrow=classic;html=1;rounded=0;entryX=1.015;entryY=0.151;entryDx=0;entryDy=0;entryPerimeter=0;exitX=-0.014;exitY=0.155;exitDx=0;exitDy=0;exitPerimeter=0;" parent="yNVoWuhnCR1HmCepwcBa-24" edge="1">
          <mxGeometry width="50" height="50" relative="1" as="geometry">
            <mxPoint x="584.5" y="1060" as="sourcePoint" />
            <mxPoint x="472.5" y="1060" as="targetPoint" />
          </mxGeometry>
        </mxCell>
        <mxCell id="yNVoWuhnCR1HmCepwcBa-322" value="150px" style="edgeLabel;html=1;align=center;verticalAlign=middle;resizable=0;points=[];" parent="yNVoWuhnCR1HmCepwcBa-321" vertex="1" connectable="0">
          <mxGeometry x="0.1069" y="1" relative="1" as="geometry">
            <mxPoint as="offset" />
          </mxGeometry>
        </mxCell>
        <mxCell id="yNVoWuhnCR1HmCepwcBa-323" value="" style="endArrow=classic;startArrow=classic;html=1;rounded=0;entryX=1.015;entryY=0.151;entryDx=0;entryDy=0;entryPerimeter=0;exitX=-0.014;exitY=0.155;exitDx=0;exitDy=0;exitPerimeter=0;" parent="yNVoWuhnCR1HmCepwcBa-24" edge="1">
          <mxGeometry width="50" height="50" relative="1" as="geometry">
            <mxPoint x="824.5" y="1060" as="sourcePoint" />
            <mxPoint x="712.5" y="1060" as="targetPoint" />
          </mxGeometry>
        </mxCell>
        <mxCell id="yNVoWuhnCR1HmCepwcBa-324" value="150px" style="edgeLabel;html=1;align=center;verticalAlign=middle;resizable=0;points=[];" parent="yNVoWuhnCR1HmCepwcBa-323" vertex="1" connectable="0">
          <mxGeometry x="0.1069" y="1" relative="1" as="geometry">
            <mxPoint as="offset" />
          </mxGeometry>
        </mxCell>
        <mxCell id="yNVoWuhnCR1HmCepwcBa-325" value="" style="endArrow=classic;startArrow=classic;html=1;rounded=0;entryX=1.015;entryY=0.151;entryDx=0;entryDy=0;entryPerimeter=0;exitX=0.653;exitY=-0.057;exitDx=0;exitDy=0;exitPerimeter=0;" parent="yNVoWuhnCR1HmCepwcBa-24" source="yNVoWuhnCR1HmCepwcBa-28" edge="1">
          <mxGeometry width="50" height="50" relative="1" as="geometry">
            <mxPoint x="632" y="150" as="sourcePoint" />
            <mxPoint x="520" y="150" as="targetPoint" />
          </mxGeometry>
        </mxCell>
        <mxCell id="yNVoWuhnCR1HmCepwcBa-326" value="200px" style="edgeLabel;html=1;align=center;verticalAlign=middle;resizable=0;points=[];" parent="yNVoWuhnCR1HmCepwcBa-325" vertex="1" connectable="0">
          <mxGeometry x="0.1069" y="1" relative="1" as="geometry">
            <mxPoint as="offset" />
          </mxGeometry>
        </mxCell>
        <mxCell id="yNVoWuhnCR1HmCepwcBa-343" value="" style="endArrow=classic;startArrow=classic;html=1;rounded=0;entryX=1.015;entryY=0.151;entryDx=0;entryDy=0;entryPerimeter=0;exitX=0.5;exitY=0;exitDx=0;exitDy=0;" parent="yNVoWuhnCR1HmCepwcBa-24" edge="1">
          <mxGeometry width="50" height="50" relative="1" as="geometry">
            <mxPoint x="490" y="1265" as="sourcePoint" />
            <mxPoint x="490.6999999999998" y="1220" as="targetPoint" />
          </mxGeometry>
        </mxCell>
        <mxCell id="yNVoWuhnCR1HmCepwcBa-344" value="100px" style="edgeLabel;html=1;align=center;verticalAlign=middle;resizable=0;points=[];" parent="yNVoWuhnCR1HmCepwcBa-343" vertex="1" connectable="0">
          <mxGeometry x="0.1069" y="1" relative="1" as="geometry">
            <mxPoint as="offset" />
          </mxGeometry>
        </mxCell>
        <mxCell id="yNVoWuhnCR1HmCepwcBa-345" value="" style="endArrow=classic;startArrow=classic;html=1;rounded=0;entryX=1.015;entryY=0.151;entryDx=0;entryDy=0;entryPerimeter=0;" parent="yNVoWuhnCR1HmCepwcBa-24" edge="1">
          <mxGeometry width="50" height="50" relative="1" as="geometry">
            <mxPoint x="661" y="1190" as="sourcePoint" />
            <mxPoint x="660.6999999999998" y="1170" as="targetPoint" />
          </mxGeometry>
        </mxCell>
        <mxCell id="yNVoWuhnCR1HmCepwcBa-346" value="20px" style="edgeLabel;html=1;align=center;verticalAlign=middle;resizable=0;points=[];" parent="yNVoWuhnCR1HmCepwcBa-345" vertex="1" connectable="0">
          <mxGeometry x="0.1069" y="1" relative="1" as="geometry">
            <mxPoint as="offset" />
          </mxGeometry>
        </mxCell>
        <mxCell id="yNVoWuhnCR1HmCepwcBa-349" value="" style="endArrow=classic;startArrow=classic;html=1;rounded=0;entryX=1.015;entryY=0.151;entryDx=0;entryDy=0;entryPerimeter=0;exitX=0.5;exitY=0;exitDx=0;exitDy=0;" parent="yNVoWuhnCR1HmCepwcBa-24" edge="1">
          <mxGeometry width="50" height="50" relative="1" as="geometry">
            <mxPoint x="579.3000000000002" y="1310" as="sourcePoint" />
            <mxPoint x="580" y="1265" as="targetPoint" />
          </mxGeometry>
        </mxCell>
        <mxCell id="yNVoWuhnCR1HmCepwcBa-350" value="100px" style="edgeLabel;html=1;align=center;verticalAlign=middle;resizable=0;points=[];" parent="yNVoWuhnCR1HmCepwcBa-349" vertex="1" connectable="0">
          <mxGeometry x="0.1069" y="1" relative="1" as="geometry">
            <mxPoint as="offset" />
          </mxGeometry>
        </mxCell>
        <mxCell id="78AGSwn7mPcis8Uo8uip-14" value="" style="endArrow=classic;startArrow=classic;html=1;rounded=0;entryX=1.015;entryY=0.151;entryDx=0;entryDy=0;entryPerimeter=0;" edge="1" parent="yNVoWuhnCR1HmCepwcBa-24">
          <mxGeometry width="50" height="50" relative="1" as="geometry">
            <mxPoint x="548.9200000000001" y="129.88" as="sourcePoint" />
            <mxPoint x="535" y="129.88" as="targetPoint" />
            <Array as="points">
              <mxPoint x="538.9200000000001" y="129.99" />
            </Array>
          </mxGeometry>
        </mxCell>
        <mxCell id="78AGSwn7mPcis8Uo8uip-15" value="20px" style="edgeLabel;html=1;align=center;verticalAlign=middle;resizable=0;points=[];" vertex="1" connectable="0" parent="78AGSwn7mPcis8Uo8uip-14">
          <mxGeometry x="0.1069" y="1" relative="1" as="geometry">
            <mxPoint as="offset" />
          </mxGeometry>
        </mxCell>
        <mxCell id="78AGSwn7mPcis8Uo8uip-16" value="" style="endArrow=classic;startArrow=classic;html=1;rounded=0;entryX=1.015;entryY=0.151;entryDx=0;entryDy=0;entryPerimeter=0;" edge="1" parent="yNVoWuhnCR1HmCepwcBa-24">
          <mxGeometry width="50" height="50" relative="1" as="geometry">
            <mxPoint x="495" y="129.88" as="sourcePoint" />
            <mxPoint x="481.0799999999999" y="129.88" as="targetPoint" />
            <Array as="points">
              <mxPoint x="485" y="129.99" />
            </Array>
          </mxGeometry>
        </mxCell>
        <mxCell id="78AGSwn7mPcis8Uo8uip-17" value="20px" style="edgeLabel;html=1;align=center;verticalAlign=middle;resizable=0;points=[];" vertex="1" connectable="0" parent="78AGSwn7mPcis8Uo8uip-16">
          <mxGeometry x="0.1069" y="1" relative="1" as="geometry">
            <mxPoint as="offset" />
          </mxGeometry>
        </mxCell>
        <mxCell id="yNVoWuhnCR1HmCepwcBa-46" value="" style="strokeWidth=1;shadow=0;dashed=0;align=center;html=1;shape=mxgraph.mockup.containers.browserWindow;rSize=0;strokeColor=#666666;mainText=,;recursiveResize=0;rounded=0;labelBackgroundColor=none;fontFamily=Verdana;fontSize=12" parent="1" vertex="1">
          <mxGeometry x="3720" y="350" width="1180" height="1090" as="geometry" />
        </mxCell>
        <mxCell id="yNVoWuhnCR1HmCepwcBa-47" value="Page 1" style="strokeWidth=1;shadow=0;dashed=0;align=center;html=1;shape=mxgraph.mockup.containers.anchor;fontSize=17;fontColor=#666666;align=left;" parent="yNVoWuhnCR1HmCepwcBa-46" vertex="1">
          <mxGeometry x="60" y="12" width="110" height="26" as="geometry" />
        </mxCell>
        <mxCell id="yNVoWuhnCR1HmCepwcBa-48" value="https://www.default.com" style="strokeWidth=1;shadow=0;dashed=0;align=center;html=1;shape=mxgraph.mockup.containers.anchor;rSize=0;fontSize=17;fontColor=#666666;align=left;" parent="yNVoWuhnCR1HmCepwcBa-46" vertex="1">
          <mxGeometry x="130" y="60" width="250" height="26" as="geometry" />
        </mxCell>
        <mxCell id="yNVoWuhnCR1HmCepwcBa-49" value="" style="verticalLabelPosition=bottom;shadow=0;dashed=0;align=center;html=1;verticalAlign=top;strokeWidth=1;shape=mxgraph.mockup.graphics.simpleIcon;strokeColor=#999999;fillColor=#ffffff;rounded=0;labelBackgroundColor=none;fontFamily=Verdana;fontSize=12;fontColor=#000000;" parent="yNVoWuhnCR1HmCepwcBa-46" vertex="1">
          <mxGeometry y="170" width="1180" height="150" as="geometry" />
        </mxCell>
        <mxCell id="yNVoWuhnCR1HmCepwcBa-50" value="&lt;font style=&quot;font-size: 45px;&quot;&gt;Gruppen&lt;/font&gt;" style="text;html=1;points=[];align=left;verticalAlign=top;spacingTop=-4;fontSize=30;fontFamily=Verdana" parent="yNVoWuhnCR1HmCepwcBa-46" vertex="1">
          <mxGeometry x="500" y="200" width="170" height="50" as="geometry" />
        </mxCell>
        <mxCell id="yNVoWuhnCR1HmCepwcBa-52" value="" style="group" parent="yNVoWuhnCR1HmCepwcBa-46" vertex="1" connectable="0">
          <mxGeometry x="160" y="370" width="850" height="200" as="geometry" />
        </mxCell>
        <mxCell id="yNVoWuhnCR1HmCepwcBa-53" value="" style="group" parent="yNVoWuhnCR1HmCepwcBa-52" vertex="1" connectable="0">
          <mxGeometry x="580" width="270" height="200" as="geometry" />
        </mxCell>
        <mxCell id="yNVoWuhnCR1HmCepwcBa-54" value="Gruppe" style="strokeWidth=1;shadow=0;dashed=0;align=center;html=1;shape=mxgraph.mockup.buttons.button;strokeColor=#666666;mainText=;buttonStyle=round;fontSize=17;fontStyle=0;fillColor=none;whiteSpace=wrap;rounded=0;labelBackgroundColor=none;" parent="yNVoWuhnCR1HmCepwcBa-53" vertex="1">
          <mxGeometry width="270" height="200" as="geometry" />
        </mxCell>
        <mxCell id="yNVoWuhnCR1HmCepwcBa-55" value="" style="verticalLabelPosition=bottom;shadow=0;dashed=0;align=center;html=1;verticalAlign=top;strokeWidth=1;shape=mxgraph.mockup.markup.line;strokeColor=#999999;rounded=0;labelBackgroundColor=none;fillColor=#ffffff;fontFamily=Verdana;fontSize=12;fontColor=#000000;" parent="yNVoWuhnCR1HmCepwcBa-53" vertex="1">
          <mxGeometry y="145" width="270" height="20" as="geometry" />
        </mxCell>
        <mxCell id="yNVoWuhnCR1HmCepwcBa-56" value="Beschreibung" style="text;whiteSpace=wrap;html=1;" parent="yNVoWuhnCR1HmCepwcBa-53" vertex="1">
          <mxGeometry x="90" y="165" width="90" height="30" as="geometry" />
        </mxCell>
        <mxCell id="yNVoWuhnCR1HmCepwcBa-57" value="" style="group" parent="yNVoWuhnCR1HmCepwcBa-52" vertex="1" connectable="0">
          <mxGeometry x="290" width="270" height="200" as="geometry" />
        </mxCell>
        <mxCell id="yNVoWuhnCR1HmCepwcBa-58" value="Gruppe" style="strokeWidth=1;shadow=0;dashed=0;align=center;html=1;shape=mxgraph.mockup.buttons.button;strokeColor=#666666;mainText=;buttonStyle=round;fontSize=17;fontStyle=0;fillColor=none;whiteSpace=wrap;rounded=0;labelBackgroundColor=none;" parent="yNVoWuhnCR1HmCepwcBa-57" vertex="1">
          <mxGeometry width="270" height="200" as="geometry" />
        </mxCell>
        <mxCell id="yNVoWuhnCR1HmCepwcBa-59" value="" style="verticalLabelPosition=bottom;shadow=0;dashed=0;align=center;html=1;verticalAlign=top;strokeWidth=1;shape=mxgraph.mockup.markup.line;strokeColor=#999999;rounded=0;labelBackgroundColor=none;fillColor=#ffffff;fontFamily=Verdana;fontSize=12;fontColor=#000000;" parent="yNVoWuhnCR1HmCepwcBa-57" vertex="1">
          <mxGeometry y="145" width="270" height="20" as="geometry" />
        </mxCell>
        <mxCell id="yNVoWuhnCR1HmCepwcBa-60" value="Beschreibung" style="text;whiteSpace=wrap;html=1;" parent="yNVoWuhnCR1HmCepwcBa-57" vertex="1">
          <mxGeometry x="90" y="165" width="90" height="30" as="geometry" />
        </mxCell>
        <mxCell id="yNVoWuhnCR1HmCepwcBa-61" value="" style="group" parent="yNVoWuhnCR1HmCepwcBa-52" vertex="1" connectable="0">
          <mxGeometry width="270" height="200" as="geometry" />
        </mxCell>
        <mxCell id="yNVoWuhnCR1HmCepwcBa-62" value="Gruppe" style="strokeWidth=1;shadow=0;dashed=0;align=center;html=1;shape=mxgraph.mockup.buttons.button;strokeColor=#666666;mainText=;buttonStyle=round;fontSize=17;fontStyle=0;fillColor=none;whiteSpace=wrap;rounded=0;labelBackgroundColor=none;" parent="yNVoWuhnCR1HmCepwcBa-61" vertex="1">
          <mxGeometry width="270" height="200" as="geometry" />
        </mxCell>
        <mxCell id="yNVoWuhnCR1HmCepwcBa-63" value="" style="verticalLabelPosition=bottom;shadow=0;dashed=0;align=center;html=1;verticalAlign=top;strokeWidth=1;shape=mxgraph.mockup.markup.line;strokeColor=#999999;rounded=0;labelBackgroundColor=none;fillColor=#ffffff;fontFamily=Verdana;fontSize=12;fontColor=#000000;" parent="yNVoWuhnCR1HmCepwcBa-61" vertex="1">
          <mxGeometry y="145" width="270" height="20" as="geometry" />
        </mxCell>
        <mxCell id="yNVoWuhnCR1HmCepwcBa-64" value="Beschreibung" style="text;whiteSpace=wrap;html=1;" parent="yNVoWuhnCR1HmCepwcBa-61" vertex="1">
          <mxGeometry x="90" y="165" width="90" height="30" as="geometry" />
        </mxCell>
        <mxCell id="yNVoWuhnCR1HmCepwcBa-65" value="" style="group" parent="yNVoWuhnCR1HmCepwcBa-46" vertex="1" connectable="0">
          <mxGeometry x="160" y="585" width="850" height="200" as="geometry" />
        </mxCell>
        <mxCell id="yNVoWuhnCR1HmCepwcBa-66" value="" style="group" parent="yNVoWuhnCR1HmCepwcBa-65" vertex="1" connectable="0">
          <mxGeometry x="580" width="270" height="200" as="geometry" />
        </mxCell>
        <mxCell id="yNVoWuhnCR1HmCepwcBa-67" value="Gruppe" style="strokeWidth=1;shadow=0;dashed=0;align=center;html=1;shape=mxgraph.mockup.buttons.button;strokeColor=#666666;mainText=;buttonStyle=round;fontSize=17;fontStyle=0;fillColor=none;whiteSpace=wrap;rounded=0;labelBackgroundColor=none;" parent="yNVoWuhnCR1HmCepwcBa-66" vertex="1">
          <mxGeometry width="270" height="200" as="geometry" />
        </mxCell>
        <mxCell id="yNVoWuhnCR1HmCepwcBa-68" value="" style="verticalLabelPosition=bottom;shadow=0;dashed=0;align=center;html=1;verticalAlign=top;strokeWidth=1;shape=mxgraph.mockup.markup.line;strokeColor=#999999;rounded=0;labelBackgroundColor=none;fillColor=#ffffff;fontFamily=Verdana;fontSize=12;fontColor=#000000;" parent="yNVoWuhnCR1HmCepwcBa-66" vertex="1">
          <mxGeometry y="145" width="270" height="20" as="geometry" />
        </mxCell>
        <mxCell id="yNVoWuhnCR1HmCepwcBa-69" value="Beschreibung" style="text;whiteSpace=wrap;html=1;" parent="yNVoWuhnCR1HmCepwcBa-66" vertex="1">
          <mxGeometry x="90" y="165" width="90" height="30" as="geometry" />
        </mxCell>
        <mxCell id="yNVoWuhnCR1HmCepwcBa-70" value="" style="group" parent="yNVoWuhnCR1HmCepwcBa-65" vertex="1" connectable="0">
          <mxGeometry x="290" width="270" height="200" as="geometry" />
        </mxCell>
        <mxCell id="yNVoWuhnCR1HmCepwcBa-71" value="Gruppe" style="strokeWidth=1;shadow=0;dashed=0;align=center;html=1;shape=mxgraph.mockup.buttons.button;strokeColor=#666666;mainText=;buttonStyle=round;fontSize=17;fontStyle=0;fillColor=none;whiteSpace=wrap;rounded=0;labelBackgroundColor=none;" parent="yNVoWuhnCR1HmCepwcBa-70" vertex="1">
          <mxGeometry width="270" height="200" as="geometry" />
        </mxCell>
        <mxCell id="yNVoWuhnCR1HmCepwcBa-72" value="" style="verticalLabelPosition=bottom;shadow=0;dashed=0;align=center;html=1;verticalAlign=top;strokeWidth=1;shape=mxgraph.mockup.markup.line;strokeColor=#999999;rounded=0;labelBackgroundColor=none;fillColor=#ffffff;fontFamily=Verdana;fontSize=12;fontColor=#000000;" parent="yNVoWuhnCR1HmCepwcBa-70" vertex="1">
          <mxGeometry y="145" width="270" height="20" as="geometry" />
        </mxCell>
        <mxCell id="yNVoWuhnCR1HmCepwcBa-73" value="Beschreibung" style="text;whiteSpace=wrap;html=1;" parent="yNVoWuhnCR1HmCepwcBa-70" vertex="1">
          <mxGeometry x="90" y="165" width="90" height="30" as="geometry" />
        </mxCell>
        <mxCell id="yNVoWuhnCR1HmCepwcBa-74" value="" style="group" parent="yNVoWuhnCR1HmCepwcBa-65" vertex="1" connectable="0">
          <mxGeometry width="270" height="200" as="geometry" />
        </mxCell>
        <mxCell id="yNVoWuhnCR1HmCepwcBa-75" value="Gruppe" style="strokeWidth=1;shadow=0;dashed=0;align=center;html=1;shape=mxgraph.mockup.buttons.button;strokeColor=#666666;mainText=;buttonStyle=round;fontSize=17;fontStyle=0;fillColor=none;whiteSpace=wrap;rounded=0;labelBackgroundColor=none;" parent="yNVoWuhnCR1HmCepwcBa-74" vertex="1">
          <mxGeometry width="270" height="200" as="geometry" />
        </mxCell>
        <mxCell id="yNVoWuhnCR1HmCepwcBa-76" value="" style="verticalLabelPosition=bottom;shadow=0;dashed=0;align=center;html=1;verticalAlign=top;strokeWidth=1;shape=mxgraph.mockup.markup.line;strokeColor=#999999;rounded=0;labelBackgroundColor=none;fillColor=#ffffff;fontFamily=Verdana;fontSize=12;fontColor=#000000;" parent="yNVoWuhnCR1HmCepwcBa-74" vertex="1">
          <mxGeometry y="145" width="270" height="20" as="geometry" />
        </mxCell>
        <mxCell id="yNVoWuhnCR1HmCepwcBa-77" value="Beschreibung" style="text;whiteSpace=wrap;html=1;" parent="yNVoWuhnCR1HmCepwcBa-74" vertex="1">
          <mxGeometry x="90" y="165" width="90" height="30" as="geometry" />
        </mxCell>
        <mxCell id="yNVoWuhnCR1HmCepwcBa-78" value="" style="group" parent="yNVoWuhnCR1HmCepwcBa-46" vertex="1" connectable="0">
          <mxGeometry x="160" y="805" width="850" height="200" as="geometry" />
        </mxCell>
        <mxCell id="yNVoWuhnCR1HmCepwcBa-79" value="" style="group" parent="yNVoWuhnCR1HmCepwcBa-78" vertex="1" connectable="0">
          <mxGeometry x="580" width="270" height="200" as="geometry" />
        </mxCell>
        <mxCell id="yNVoWuhnCR1HmCepwcBa-80" value="Gruppe" style="strokeWidth=1;shadow=0;dashed=0;align=center;html=1;shape=mxgraph.mockup.buttons.button;strokeColor=#666666;mainText=;buttonStyle=round;fontSize=17;fontStyle=0;fillColor=none;whiteSpace=wrap;rounded=0;labelBackgroundColor=none;" parent="yNVoWuhnCR1HmCepwcBa-79" vertex="1">
          <mxGeometry width="270" height="200" as="geometry" />
        </mxCell>
        <mxCell id="yNVoWuhnCR1HmCepwcBa-81" value="" style="verticalLabelPosition=bottom;shadow=0;dashed=0;align=center;html=1;verticalAlign=top;strokeWidth=1;shape=mxgraph.mockup.markup.line;strokeColor=#999999;rounded=0;labelBackgroundColor=none;fillColor=#ffffff;fontFamily=Verdana;fontSize=12;fontColor=#000000;" parent="yNVoWuhnCR1HmCepwcBa-79" vertex="1">
          <mxGeometry y="145" width="270" height="20" as="geometry" />
        </mxCell>
        <mxCell id="yNVoWuhnCR1HmCepwcBa-82" value="Beschreibung" style="text;whiteSpace=wrap;html=1;" parent="yNVoWuhnCR1HmCepwcBa-79" vertex="1">
          <mxGeometry x="90" y="165" width="90" height="30" as="geometry" />
        </mxCell>
        <mxCell id="yNVoWuhnCR1HmCepwcBa-83" value="" style="group" parent="yNVoWuhnCR1HmCepwcBa-78" vertex="1" connectable="0">
          <mxGeometry x="290" width="270" height="200" as="geometry" />
        </mxCell>
        <mxCell id="yNVoWuhnCR1HmCepwcBa-84" value="Gruppe" style="strokeWidth=1;shadow=0;dashed=0;align=center;html=1;shape=mxgraph.mockup.buttons.button;strokeColor=#666666;mainText=;buttonStyle=round;fontSize=17;fontStyle=0;fillColor=none;whiteSpace=wrap;rounded=0;labelBackgroundColor=none;" parent="yNVoWuhnCR1HmCepwcBa-83" vertex="1">
          <mxGeometry width="270" height="200" as="geometry" />
        </mxCell>
        <mxCell id="yNVoWuhnCR1HmCepwcBa-85" value="" style="verticalLabelPosition=bottom;shadow=0;dashed=0;align=center;html=1;verticalAlign=top;strokeWidth=1;shape=mxgraph.mockup.markup.line;strokeColor=#999999;rounded=0;labelBackgroundColor=none;fillColor=#ffffff;fontFamily=Verdana;fontSize=12;fontColor=#000000;" parent="yNVoWuhnCR1HmCepwcBa-83" vertex="1">
          <mxGeometry y="145" width="270" height="20" as="geometry" />
        </mxCell>
        <mxCell id="yNVoWuhnCR1HmCepwcBa-86" value="Beschreibung" style="text;whiteSpace=wrap;html=1;" parent="yNVoWuhnCR1HmCepwcBa-83" vertex="1">
          <mxGeometry x="90" y="165" width="90" height="30" as="geometry" />
        </mxCell>
        <mxCell id="yNVoWuhnCR1HmCepwcBa-87" value="" style="group" parent="yNVoWuhnCR1HmCepwcBa-78" vertex="1" connectable="0">
          <mxGeometry width="270" height="200" as="geometry" />
        </mxCell>
        <mxCell id="yNVoWuhnCR1HmCepwcBa-88" value="Gruppe" style="strokeWidth=1;shadow=0;dashed=0;align=center;html=1;shape=mxgraph.mockup.buttons.button;strokeColor=#666666;mainText=;buttonStyle=round;fontSize=17;fontStyle=0;fillColor=none;whiteSpace=wrap;rounded=0;labelBackgroundColor=none;" parent="yNVoWuhnCR1HmCepwcBa-87" vertex="1">
          <mxGeometry width="270" height="200" as="geometry" />
        </mxCell>
        <mxCell id="yNVoWuhnCR1HmCepwcBa-89" value="" style="verticalLabelPosition=bottom;shadow=0;dashed=0;align=center;html=1;verticalAlign=top;strokeWidth=1;shape=mxgraph.mockup.markup.line;strokeColor=#999999;rounded=0;labelBackgroundColor=none;fillColor=#ffffff;fontFamily=Verdana;fontSize=12;fontColor=#000000;" parent="yNVoWuhnCR1HmCepwcBa-87" vertex="1">
          <mxGeometry y="145" width="270" height="20" as="geometry" />
        </mxCell>
        <mxCell id="yNVoWuhnCR1HmCepwcBa-90" value="Beschreibung" style="text;whiteSpace=wrap;html=1;" parent="yNVoWuhnCR1HmCepwcBa-87" vertex="1">
          <mxGeometry x="90" y="165" width="90" height="30" as="geometry" />
        </mxCell>
        <mxCell id="yNVoWuhnCR1HmCepwcBa-182" value="Copyright PfadiMH" style="text;html=1;align=center;verticalAlign=middle;whiteSpace=wrap;rounded=0;" parent="yNVoWuhnCR1HmCepwcBa-46" vertex="1">
          <mxGeometry x="512.5" y="1050" width="145" height="30" as="geometry" />
        </mxCell>
        <mxCell id="yNVoWuhnCR1HmCepwcBa-190" value="Logo" style="ellipse;whiteSpace=wrap;html=1;aspect=fixed;" parent="yNVoWuhnCR1HmCepwcBa-46" vertex="1">
          <mxGeometry x="575" y="120" width="40" height="40" as="geometry" />
        </mxCell>
        <mxCell id="yNVoWuhnCR1HmCepwcBa-191" value="Home" style="text;html=1;align=center;verticalAlign=middle;whiteSpace=wrap;rounded=0;" parent="yNVoWuhnCR1HmCepwcBa-46" vertex="1">
          <mxGeometry x="510" y="125" width="60" height="30" as="geometry" />
        </mxCell>
        <mxCell id="yNVoWuhnCR1HmCepwcBa-192" value="Gruppenübersicht" style="text;html=1;align=center;verticalAlign=middle;whiteSpace=wrap;rounded=0;" parent="yNVoWuhnCR1HmCepwcBa-46" vertex="1">
          <mxGeometry x="650" y="125" width="60" height="30" as="geometry" />
        </mxCell>
        <mxCell id="yNVoWuhnCR1HmCepwcBa-329" value="" style="endArrow=classic;startArrow=classic;html=1;rounded=0;entryX=1.015;entryY=0.151;entryDx=0;entryDy=0;entryPerimeter=0;exitX=0.549;exitY=0.038;exitDx=0;exitDy=0;exitPerimeter=0;" parent="yNVoWuhnCR1HmCepwcBa-46" edge="1">
          <mxGeometry width="50" height="50" relative="1" as="geometry">
            <mxPoint x="589.4599999999999" y="210.89999999999998" as="sourcePoint" />
            <mxPoint x="590.5399999999998" y="170" as="targetPoint" />
          </mxGeometry>
        </mxCell>
        <mxCell id="yNVoWuhnCR1HmCepwcBa-330" value="200px" style="edgeLabel;html=1;align=center;verticalAlign=middle;resizable=0;points=[];" parent="yNVoWuhnCR1HmCepwcBa-329" vertex="1" connectable="0">
          <mxGeometry x="0.1069" y="1" relative="1" as="geometry">
            <mxPoint as="offset" />
          </mxGeometry>
        </mxCell>
        <mxCell id="yNVoWuhnCR1HmCepwcBa-331" value="" style="endArrow=classic;startArrow=classic;html=1;rounded=0;entryX=1.015;entryY=0.151;entryDx=0;entryDy=0;entryPerimeter=0;exitX=0.549;exitY=0.038;exitDx=0;exitDy=0;exitPerimeter=0;" parent="yNVoWuhnCR1HmCepwcBa-46" edge="1">
          <mxGeometry width="50" height="50" relative="1" as="geometry">
            <mxPoint x="594.3000000000002" y="311" as="sourcePoint" />
            <mxPoint x="595.71" y="270" as="targetPoint" />
          </mxGeometry>
        </mxCell>
        <mxCell id="yNVoWuhnCR1HmCepwcBa-332" value="200px" style="edgeLabel;html=1;align=center;verticalAlign=middle;resizable=0;points=[];" parent="yNVoWuhnCR1HmCepwcBa-331" vertex="1" connectable="0">
          <mxGeometry x="0.1069" y="1" relative="1" as="geometry">
            <mxPoint as="offset" />
          </mxGeometry>
        </mxCell>
        <mxCell id="yNVoWuhnCR1HmCepwcBa-333" value="" style="endArrow=classic;startArrow=classic;html=1;rounded=0;entryX=1.015;entryY=0.151;entryDx=0;entryDy=0;entryPerimeter=0;exitX=0.549;exitY=0.038;exitDx=0;exitDy=0;exitPerimeter=0;" parent="yNVoWuhnCR1HmCepwcBa-46" edge="1">
          <mxGeometry width="50" height="50" relative="1" as="geometry">
            <mxPoint x="594.29" y="361" as="sourcePoint" />
            <mxPoint x="595.6999999999998" y="320" as="targetPoint" />
          </mxGeometry>
        </mxCell>
        <mxCell id="yNVoWuhnCR1HmCepwcBa-334" value="100px" style="edgeLabel;html=1;align=center;verticalAlign=middle;resizable=0;points=[];" parent="yNVoWuhnCR1HmCepwcBa-333" vertex="1" connectable="0">
          <mxGeometry x="0.1069" y="1" relative="1" as="geometry">
            <mxPoint as="offset" />
          </mxGeometry>
        </mxCell>
        <mxCell id="yNVoWuhnCR1HmCepwcBa-336" value="" style="endArrow=classic;startArrow=classic;html=1;rounded=0;entryX=0.003;entryY=0.002;entryDx=0;entryDy=0;entryPerimeter=0;exitX=0.549;exitY=0.038;exitDx=0;exitDy=0;exitPerimeter=0;" parent="yNVoWuhnCR1HmCepwcBa-46" target="yNVoWuhnCR1HmCepwcBa-58" edge="1">
          <mxGeometry width="50" height="50" relative="1" as="geometry">
            <mxPoint x="430" y="370" as="sourcePoint" />
            <mxPoint x="431.40999999999985" y="329" as="targetPoint" />
          </mxGeometry>
        </mxCell>
        <mxCell id="yNVoWuhnCR1HmCepwcBa-337" value="20px" style="edgeLabel;html=1;align=center;verticalAlign=middle;resizable=0;points=[];" parent="yNVoWuhnCR1HmCepwcBa-336" vertex="1" connectable="0">
          <mxGeometry x="0.1069" y="1" relative="1" as="geometry">
            <mxPoint as="offset" />
          </mxGeometry>
        </mxCell>
        <mxCell id="yNVoWuhnCR1HmCepwcBa-339" value="" style="endArrow=classic;startArrow=classic;html=1;rounded=0;entryX=0.038;entryY=0.001;entryDx=0;entryDy=0;entryPerimeter=0;exitX=0.549;exitY=0.038;exitDx=0;exitDy=0;exitPerimeter=0;" parent="yNVoWuhnCR1HmCepwcBa-46" target="yNVoWuhnCR1HmCepwcBa-71" edge="1">
          <mxGeometry width="50" height="50" relative="1" as="geometry">
            <mxPoint x="460" y="570" as="sourcePoint" />
            <mxPoint x="481" y="570" as="targetPoint" />
          </mxGeometry>
        </mxCell>
        <mxCell id="yNVoWuhnCR1HmCepwcBa-340" value="20px" style="edgeLabel;html=1;align=center;verticalAlign=middle;resizable=0;points=[];" parent="yNVoWuhnCR1HmCepwcBa-339" vertex="1" connectable="0">
          <mxGeometry x="0.1069" y="1" relative="1" as="geometry">
            <mxPoint as="offset" />
          </mxGeometry>
        </mxCell>
        <mxCell id="yNVoWuhnCR1HmCepwcBa-341" value="" style="endArrow=classic;startArrow=classic;html=1;rounded=0;entryX=1.015;entryY=0.151;entryDx=0;entryDy=0;entryPerimeter=0;exitX=0.5;exitY=0;exitDx=0;exitDy=0;" parent="yNVoWuhnCR1HmCepwcBa-46" source="yNVoWuhnCR1HmCepwcBa-182" edge="1">
          <mxGeometry width="50" height="50" relative="1" as="geometry">
            <mxPoint x="584.29" y="1046" as="sourcePoint" />
            <mxPoint x="585.6999999999998" y="1005" as="targetPoint" />
          </mxGeometry>
        </mxCell>
        <mxCell id="yNVoWuhnCR1HmCepwcBa-342" value="100px" style="edgeLabel;html=1;align=center;verticalAlign=middle;resizable=0;points=[];" parent="yNVoWuhnCR1HmCepwcBa-341" vertex="1" connectable="0">
          <mxGeometry x="0.1069" y="1" relative="1" as="geometry">
            <mxPoint as="offset" />
          </mxGeometry>
        </mxCell>
        <mxCell id="78AGSwn7mPcis8Uo8uip-10" value="" style="endArrow=classic;startArrow=classic;html=1;rounded=0;entryX=1.015;entryY=0.151;entryDx=0;entryDy=0;entryPerimeter=0;" edge="1" parent="yNVoWuhnCR1HmCepwcBa-46">
          <mxGeometry width="50" height="50" relative="1" as="geometry">
            <mxPoint x="630" y="139.89" as="sourcePoint" />
            <mxPoint x="616.0799999999999" y="139.89" as="targetPoint" />
          </mxGeometry>
        </mxCell>
        <mxCell id="78AGSwn7mPcis8Uo8uip-11" value="20px" style="edgeLabel;html=1;align=center;verticalAlign=middle;resizable=0;points=[];" vertex="1" connectable="0" parent="78AGSwn7mPcis8Uo8uip-10">
          <mxGeometry x="0.1069" y="1" relative="1" as="geometry">
            <mxPoint as="offset" />
          </mxGeometry>
        </mxCell>
        <mxCell id="78AGSwn7mPcis8Uo8uip-12" value="" style="endArrow=classic;startArrow=classic;html=1;rounded=0;entryX=1.015;entryY=0.151;entryDx=0;entryDy=0;entryPerimeter=0;" edge="1" parent="yNVoWuhnCR1HmCepwcBa-46">
          <mxGeometry width="50" height="50" relative="1" as="geometry">
            <mxPoint x="570" y="139.89" as="sourcePoint" />
            <mxPoint x="556.0799999999999" y="139.89" as="targetPoint" />
          </mxGeometry>
        </mxCell>
        <mxCell id="78AGSwn7mPcis8Uo8uip-13" value="20px" style="edgeLabel;html=1;align=center;verticalAlign=middle;resizable=0;points=[];" vertex="1" connectable="0" parent="78AGSwn7mPcis8Uo8uip-12">
          <mxGeometry x="0.1069" y="1" relative="1" as="geometry">
            <mxPoint as="offset" />
          </mxGeometry>
        </mxCell>
        <mxCell id="yNVoWuhnCR1HmCepwcBa-272" value="" style="endArrow=classic;startArrow=classic;html=1;rounded=0;entryX=0.382;entryY=0.3;entryDx=0;entryDy=0;entryPerimeter=0;" parent="1" target="yNVoWuhnCR1HmCepwcBa-31" edge="1">
          <mxGeometry width="50" height="50" relative="1" as="geometry">
            <mxPoint x="2991" y="1220" as="sourcePoint" />
            <mxPoint x="2987" y="942" as="targetPoint" />
          </mxGeometry>
        </mxCell>
        <mxCell id="yNVoWuhnCR1HmCepwcBa-273" value="100px" style="edgeLabel;html=1;align=center;verticalAlign=middle;resizable=0;points=[];" parent="yNVoWuhnCR1HmCepwcBa-272" vertex="1" connectable="0">
          <mxGeometry x="0.1069" y="1" relative="1" as="geometry">
            <mxPoint as="offset" />
          </mxGeometry>
        </mxCell>
        <mxCell id="yNVoWuhnCR1HmCepwcBa-280" value="" style="endArrow=classic;startArrow=classic;html=1;rounded=0;entryX=0.523;entryY=-0.004;entryDx=0;entryDy=0;entryPerimeter=0;" parent="1" target="yNVoWuhnCR1HmCepwcBa-37" edge="1">
          <mxGeometry width="50" height="50" relative="1" as="geometry">
            <mxPoint x="3003" y="1350" as="sourcePoint" />
            <mxPoint x="3002" y="1281" as="targetPoint" />
          </mxGeometry>
        </mxCell>
        <mxCell id="yNVoWuhnCR1HmCepwcBa-281" value="60px" style="edgeLabel;html=1;align=center;verticalAlign=middle;resizable=0;points=[];" parent="yNVoWuhnCR1HmCepwcBa-280" vertex="1" connectable="0">
          <mxGeometry x="0.1069" y="1" relative="1" as="geometry">
            <mxPoint as="offset" />
          </mxGeometry>
        </mxCell>
      </root>
    </mxGraphModel>
  </diagram>
</mxfile>
